<svg width="142" height="398" viewBox="0 0 142 398" fill="none" xmlns="http://www.w3.org/2000/svg">
<path d="M30.8317 226.94C32.1271 226.052 33.212 224.891 34.01 223.538C34.808 222.185 35.2998 220.674 35.4506 219.111C35.6014 217.548 35.4077 215.97 34.8829 214.49C34.3582 213.01 33.5153 211.663 32.4136 210.543L36.5808 117.525L15.3653 119.907L16.5978 210.891C14.8402 212.867 13.8683 215.418 13.8662 218.063C13.8641 220.707 14.8321 223.26 16.5866 225.238C18.3411 227.216 20.7603 228.482 23.3858 228.796C26.0112 229.109 28.6606 228.449 30.8317 226.94Z" fill="#FFB8B8"/>
<path d="M69.5339 384.399L81.6089 386.522L93.5429 340.958L77.7219 337.825L69.5339 384.399Z" fill="#FFB8B8"/>
<path d="M102.925 401.827L64.9758 395.156L67.5534 380.494L90.8401 384.588C92.7656 384.926 94.6055 385.64 96.2548 386.69C97.9042 387.74 99.3306 389.104 100.453 390.705C101.575 392.305 102.371 394.112 102.795 396.02C103.219 397.928 103.263 399.902 102.925 401.827Z" fill="#2F2E41"/>
<path d="M36.3919 390.443H48.6519L54.4839 343.155L36.3899 343.156L36.3919 390.443Z" fill="#FFB8B8"/>
<path d="M72.2964 401.826L33.7657 401.827L33.765 386.94L57.4089 386.939C61.3571 386.939 65.1437 388.507 67.9356 391.299C70.7276 394.091 72.2962 397.877 72.2964 401.826Z" fill="#2F2E41"/>
<path d="M88.5449 377.494C88.3536 377.494 88.1624 377.482 87.9724 377.46L73.5424 376.272C72.8854 376.195 72.251 375.985 71.6777 375.655C71.1044 375.325 70.6041 374.882 70.2073 374.352C69.8105 373.823 69.5255 373.219 69.3695 372.576C69.2135 371.933 69.1898 371.265 69.2999 370.613L82.6246 295.932L73.6211 248.458C73.5476 248.072 73.3372 247.726 73.0286 247.483C72.72 247.24 72.3341 247.117 71.942 247.137C71.5498 247.156 71.178 247.317 70.895 247.589C70.612 247.861 70.4369 248.227 70.4021 248.618L59.1463 375.245C59.0227 376.516 58.4103 377.689 57.4383 378.517C56.4664 379.345 55.2109 379.763 53.9367 379.682L40.3419 379.176C39.1505 379.092 38.0313 378.574 37.1955 377.721C36.3597 376.868 35.8652 375.738 35.8055 374.545L34.8916 222.778L105.373 213.968L110.296 290.008L110.277 290.089L93.2861 373.764C93.0272 374.827 92.4194 375.772 91.5598 376.448C90.7002 377.124 89.6386 377.492 88.5449 377.494Z" fill="#2F2E41"/>
<path d="M58.1291 57.2487C71.6938 57.2487 82.6902 46.2524 82.6902 32.6877C82.6902 19.123 71.6938 8.12665 58.1291 8.12665C44.5645 8.12665 33.5681 19.123 33.5681 32.6877C33.5681 46.2524 44.5645 57.2487 58.1291 57.2487Z" fill="#FFB8B8"/>
<path d="M81.2716 233.87C77.4303 233.893 73.6628 232.815 70.4147 230.764C58.5173 223.328 45.0041 226.284 38.0078 228.707C37.3136 228.95 36.5734 229.033 35.8425 228.95C35.1117 228.867 34.4091 228.619 33.7873 228.226C33.1727 227.84 32.6533 227.32 32.2681 226.705C31.8829 226.09 31.6418 225.396 31.5629 224.675L18.8404 111.049C16.7084 92.0115 28.1763 74.1124 46.1081 68.4895C46.7818 68.2782 47.4668 68.0778 48.1633 67.8884C53.7435 66.3754 59.5875 66.1037 65.284 67.0924C70.9806 68.081 76.3912 70.3061 81.1353 73.6109C85.9676 76.9521 90.0089 81.3118 92.9748 86.3831C95.9407 91.4545 97.7592 97.1142 98.3021 102.964L109.013 217.351C109.085 218.092 108.986 218.839 108.721 219.534C108.456 220.23 108.033 220.854 107.485 221.358C103.731 224.831 92.8337 233.869 81.2716 233.87Z" fill="#6C63FF"/>
<path d="M42.5305 135.415L13.8271 132.259C13.0104 132.17 12.2227 131.905 11.5176 131.483C10.8124 131.061 10.2065 130.493 9.74095 129.816C9.27542 129.139 8.96127 128.369 8.81989 127.56C8.67852 126.751 8.71325 125.92 8.9217 125.126L16.2278 97.2792C16.7109 93.1033 18.8302 89.2894 22.121 86.6738C25.4118 84.0581 29.6055 82.8541 33.7827 83.3258C37.9599 83.7975 41.7795 85.9063 44.4042 89.19C47.0289 92.4736 48.2444 96.664 47.7841 100.842L48.8688 129.518C48.8996 130.339 48.753 131.157 48.4392 131.916C48.1253 132.675 47.6515 133.358 47.05 133.918C46.4485 134.478 45.7334 134.901 44.9535 135.159C44.1736 135.418 43.3472 135.505 42.5305 135.415Z" fill="#6C63FF"/>
<path d="M108.898 222.957C110.077 221.919 111.014 220.636 111.643 219.197C112.272 217.758 112.578 216.198 112.539 214.628C112.501 213.058 112.118 211.516 111.419 210.11C110.72 208.703 109.721 207.468 108.492 206.489L101.419 113.647L80.6306 118.327L92.8335 208.741C91.3268 210.913 90.6694 213.564 90.986 216.189C91.3026 218.814 92.5711 221.232 94.5512 222.984C96.5314 224.736 99.0855 225.701 101.73 225.696C104.374 225.691 106.924 224.717 108.898 222.957Z" fill="#FFB8B8"/>
<path d="M72.6605 129.579C72.0587 129.02 71.5848 128.337 71.2709 127.578C70.9571 126.818 70.8108 126 70.842 125.179L71.9266 96.5039C71.4664 92.3254 72.6819 88.135 75.3066 84.8514C77.9312 81.5677 81.7509 79.4589 85.928 78.9872C90.1052 78.5156 94.2989 79.7196 97.5898 82.3352C100.881 84.9509 103 88.7647 103.483 92.9406L110.789 120.787C110.998 121.582 111.032 122.412 110.891 123.221C110.749 124.031 110.435 124.8 109.97 125.477C109.504 126.154 108.898 126.723 108.193 127.145C107.488 127.566 106.7 127.831 105.884 127.921L77.1803 131.077C76.3635 131.167 75.5369 131.08 74.7568 130.821C73.9768 130.563 73.2617 130.139 72.6605 129.579Z" fill="#6C63FF"/>
<path d="M56.6682 58.1741C56.2316 58.1736 55.7965 58.1228 55.3715 58.0227L55.2468 57.9924C33.6523 54.6887 28.8801 42.1809 27.8325 36.9573C26.7483 31.5491 27.9829 26.3289 30.7727 24.3015C29.2517 19.4988 29.4958 15.2405 31.5 11.6394C34.9953 5.35913 42.581 3.23561 43.5984 2.97584C49.6565 -1.4934 56.9048 1.49 58.2236 2.09498C69.9421 -2.24047 74.4211 1.36841 75.2312 2.17408C80.4694 3.11499 83.6623 5.13844 84.7224 8.18971C86.7134 13.9207 80.417 21.0496 80.1479 21.3504L80.0083 21.5061L70.6281 21.9529C69.7381 21.9954 68.8668 22.2244 68.071 22.6253C67.2752 23.0261 66.5725 23.5898 66.0085 24.2797C65.4445 24.9696 65.0319 25.7704 64.7973 26.63C64.5628 27.4897 64.5115 28.389 64.6469 29.2698C64.9008 30.4062 65.2215 31.5266 65.6074 32.6253C67.2094 37.6316 68.4096 41.9085 66.8615 43.5344C66.5108 43.8491 66.0785 44.0586 65.6143 44.1391C65.15 44.2196 64.6725 44.1678 64.2363 43.9895C62.7697 43.5979 61.7739 43.6799 61.2778 44.2341C60.5075 45.0935 60.7426 47.2688 61.9399 50.3596C62.3155 51.3369 62.4166 52.3984 62.2323 53.4291C62.0479 54.4597 61.5851 55.4203 60.894 56.2068C60.3736 56.8206 59.7264 57.3143 58.9968 57.6539C58.2673 57.9936 57.4729 58.171 56.6682 58.1741Z" fill="#2F2E41"/>
</svg>
