<svg width="267" height="202" viewBox="0 0 267 202" fill="none" xmlns="http://www.w3.org/2000/svg">
<path d="M165.885 149.151L62.6731 201.319C60.99 202.167 59.0781 202.225 57.3572 201.48C55.6364 200.734 54.2471 199.247 53.4944 197.343L0.602191 63.2394C-0.147713 61.3343 -0.199246 59.1701 0.4589 57.2219C1.11705 55.2738 2.4311 53.7008 4.11264 52.8483L107.327 0.680503C109.01 -0.167578 110.921 -0.225215 112.642 0.520223C114.362 1.26566 115.751 2.75329 116.504 4.6567L169.398 138.763C170.148 140.668 170.199 142.832 169.541 144.78C168.882 146.728 167.568 148.301 165.886 149.153L165.885 149.151Z" fill="#D6D6E3"/>
<path d="M161.131 146.32L65.3109 190.218C63.7267 191.016 61.9274 191.07 60.3078 190.369C58.6882 189.667 57.3805 188.267 56.6717 186.476L5.56366 65.4589C4.8583 63.6654 4.81022 61.6284 5.42995 59.7948C6.04969 57.9613 7.28662 56.4809 8.86937 55.6785L106.013 6.57716C107.597 5.77884 109.397 5.72455 111.016 6.42619C112.636 7.12783 113.943 8.5281 114.652 10.3198L164.437 136.541C165.142 138.334 165.19 140.371 164.57 142.205C163.951 144.038 162.714 145.518 161.131 146.32Z" fill="white"/>
<path d="M123.604 146.485L130.344 145.549L131.733 158.353C131.733 158.353 129.752 154.832 128.067 155.066C126.382 155.3 124.993 159.29 124.993 159.29L123.604 146.485Z" fill="#090814"/>
<path d="M131.407 145.333L136.532 140.29L144.009 150.026C144.009 150.026 141.342 149.409 140.06 150.669C138.779 151.93 138.883 155.07 138.883 155.07L131.407 145.333Z" fill="#090814"/>
<path d="M104.381 67.3991L50.5036 94.5581C49.6463 94.9902 48.6724 95.0192 47.7962 94.6385C46.92 94.2578 46.2133 93.4987 45.8316 92.5282C45.4498 91.5576 45.4242 90.4551 45.7605 89.4632C46.0968 88.4714 46.7674 87.6714 47.6247 87.2392L101.502 60.0803C102.359 59.6481 103.333 59.6191 104.209 59.9998C105.085 60.3805 105.792 61.1396 106.174 62.1102C106.556 63.0807 106.581 64.1832 106.245 65.1751C105.909 66.1669 105.238 66.967 104.381 67.3991Z" fill="#090814"/>
<path d="M55.7189 71.709L43.866 77.6839C43.0086 78.1161 42.0347 78.145 41.1585 77.7644C40.2824 77.3837 39.5756 76.6246 39.1939 75.654C38.8121 74.6835 38.7865 73.581 39.1228 72.5891C39.4591 71.5972 40.1297 70.7972 40.987 70.365L52.8399 64.3901C53.6973 63.9579 54.6712 63.929 55.5474 64.3096C56.4235 64.6903 57.1303 65.4494 57.512 66.42C57.8938 67.3905 57.9194 68.493 57.5831 69.4849C57.2468 70.4768 56.5762 71.2768 55.7189 71.709Z" fill="#6C63FF"/>
<path d="M111.018 84.2733L57.1409 111.432C56.2835 111.864 55.3096 111.893 54.4334 111.513C53.5573 111.132 52.8505 110.373 52.4688 109.402C52.087 108.432 52.0614 107.329 52.3977 106.337C52.734 105.345 53.4046 104.545 54.2619 104.113L108.139 76.9544C108.996 76.5222 109.97 76.4932 110.846 76.8739C111.722 77.2546 112.429 78.0137 112.811 78.9843C113.193 79.9548 113.218 81.0573 112.882 82.0492C112.546 83.041 111.875 83.8411 111.018 84.2733Z" fill="#090814"/>
<path d="M117.656 101.147L63.7786 128.306C62.9212 128.738 61.9473 128.767 61.0711 128.387C60.1949 128.006 59.4882 127.247 59.1065 126.276C58.7247 125.306 58.6991 124.203 59.0354 123.211C59.3717 122.22 60.0423 121.42 60.8996 120.987L114.777 93.8285C115.634 93.3963 116.608 93.3674 117.484 93.7481C118.36 94.1287 119.067 94.8879 119.449 95.8584C119.83 96.8289 119.856 97.9314 119.52 98.9233C119.183 99.9152 118.513 100.715 117.656 101.147Z" fill="#090814"/>
<path d="M119.187 118.644C121.731 117.361 124.554 116.962 127.299 117.495C130.043 118.029 132.586 119.472 134.607 121.642C136.627 123.812 138.033 126.611 138.648 129.686C139.263 132.761 139.058 135.973 138.06 138.916C137.062 141.859 135.316 144.401 133.042 146.221C130.768 148.04 128.068 149.056 125.284 149.138C122.5 149.221 119.757 148.367 117.402 146.685C115.047 145.003 113.185 142.568 112.052 139.688C110.533 135.827 110.432 131.44 111.77 127.493C113.108 123.547 115.776 120.363 119.187 118.644Z" fill="#6C63FF"/>
<path d="M126.285 141.709C126.063 141.821 125.821 141.873 125.578 141.86C125.335 141.848 125.098 141.772 124.885 141.638L119.293 138.11C118.93 137.881 118.662 137.498 118.549 137.046C118.435 136.594 118.485 136.109 118.687 135.698C118.889 135.287 119.227 134.984 119.627 134.856C120.026 134.727 120.455 134.783 120.818 135.012L124.477 137.32L126.434 124.335C126.466 124.103 126.538 123.88 126.647 123.679C126.755 123.478 126.898 123.304 127.067 123.166C127.235 123.028 127.426 122.93 127.629 122.877C127.831 122.824 128.041 122.817 128.246 122.856C128.451 122.896 128.647 122.981 128.823 123.108C128.998 123.234 129.15 123.398 129.268 123.592C129.387 123.785 129.471 124.003 129.514 124.233C129.558 124.463 129.561 124.701 129.522 124.932L127.192 140.387C127.149 140.666 127.049 140.93 126.898 141.156C126.748 141.383 126.551 141.565 126.326 141.687L126.285 141.709Z" fill="white"/>
<path d="M198.384 164.517L116.881 148.836C115.553 148.579 114.442 147.773 113.793 146.594C113.143 145.415 113.007 143.96 113.416 142.549L142.267 43.1767C142.678 41.7656 143.599 40.514 144.828 39.6966C146.057 38.8792 147.494 38.5628 148.823 38.8168L230.327 54.4987C231.655 54.7558 232.765 55.5621 233.415 56.7407C234.064 57.9192 234.2 59.3738 233.791 60.7851L204.94 160.16C204.529 161.571 203.608 162.822 202.379 163.64C201.149 164.457 199.713 164.773 198.384 164.519L198.384 164.517Z" fill="#D6D6E3"/>
<path d="M196.928 160.823L123.253 143.69C122.003 143.448 120.958 142.689 120.346 141.579C119.735 140.47 119.607 139.101 119.991 137.772L144.11 46.615C144.497 45.2869 145.364 44.109 146.521 43.3398C147.678 42.5706 149.03 42.2729 150.281 42.512L226.992 57.2706C228.242 57.5127 229.288 58.2718 229.899 59.3811C230.51 60.4905 230.638 61.8597 230.254 63.1883L203.099 156.72C202.712 158.048 201.845 159.226 200.688 159.995C199.531 160.764 198.179 161.062 196.928 160.823Z" fill="white"/>
<path d="M175.55 144.444L179.788 146.87L174.955 154.752C174.955 154.752 175.376 151.882 174.316 151.276C173.257 150.669 170.717 152.325 170.717 152.325L175.55 144.444Z" fill="#090814"/>
<path d="M180.486 147.214L185.61 146.6L185.58 155.411C185.58 155.411 184.337 153.89 183.056 154.043C181.775 154.197 180.456 156.025 180.456 156.025L180.486 147.214Z" fill="#090814"/>
<path d="M199.36 91.0937L156.847 82.8667C156.171 82.7358 155.605 82.3248 155.275 81.724C154.945 81.1232 154.877 80.3819 155.086 79.6631C155.295 78.9444 155.765 78.3071 156.391 77.8914C157.018 77.4758 157.75 77.3158 158.426 77.4467L200.939 85.6737C201.616 85.8046 202.181 86.2157 202.511 86.8164C202.842 87.4172 202.91 88.1586 202.7 88.8773C202.491 89.596 202.021 90.2333 201.395 90.649C200.769 91.0646 200.037 91.2246 199.36 91.0937Z" fill="#090814"/>
<path d="M169.841 72.1805L160.488 70.3706C159.811 70.2397 159.246 69.8286 158.915 69.2278C158.585 68.627 158.517 67.8857 158.727 67.167C158.936 66.4482 159.406 65.8109 160.032 65.3953C160.658 64.9796 161.39 64.8197 162.067 64.9506L171.42 66.7605C172.096 66.8914 172.662 67.3025 172.992 67.9033C173.322 68.5041 173.39 69.2454 173.181 69.9641C172.972 70.6829 172.502 71.3201 171.876 71.7358C171.249 72.1515 170.517 72.3114 169.841 72.1805Z" fill="#6C63FF"/>
<path d="M195.719 103.59L153.207 95.3627C152.53 95.2318 151.965 94.8207 151.634 94.2199C151.304 93.6191 151.236 92.8778 151.445 92.1591C151.655 91.4403 152.124 90.803 152.751 90.3874C153.377 89.9717 154.109 89.8118 154.786 89.9427L197.298 98.1696C197.975 98.3005 198.541 98.7116 198.871 99.3124C199.201 99.9132 199.269 100.654 199.06 101.373C198.85 102.092 198.381 102.729 197.754 103.145C197.128 103.561 196.396 103.721 195.719 103.59Z" fill="#090814"/>
<path d="M192.079 116.086L149.566 107.859C148.89 107.728 148.324 107.317 147.994 106.716C147.664 106.115 147.596 105.374 147.805 104.655C148.015 103.936 148.484 103.299 149.111 102.884C149.737 102.468 150.469 102.308 151.145 102.439L193.658 110.666C194.335 110.797 194.9 111.208 195.231 111.809C195.561 112.409 195.629 113.151 195.42 113.869C195.21 114.588 194.741 115.225 194.114 115.641C193.488 116.057 192.756 116.217 192.079 116.086Z" fill="#090814"/>
<path d="M185.267 126.694C187.274 127.082 189.052 128.095 190.376 129.602C191.7 131.11 192.51 133.046 192.704 135.165C192.899 137.284 192.468 139.491 191.467 141.507C190.466 143.523 188.94 145.257 187.081 146.491C185.222 147.724 183.114 148.401 181.024 148.436C178.934 148.471 176.956 147.863 175.339 146.688C173.722 145.513 172.54 143.824 171.941 141.835C171.342 139.846 171.354 137.646 171.976 135.513C172.809 132.653 174.677 130.117 177.17 128.463C179.662 126.809 182.575 126.173 185.267 126.694Z" fill="#6C63FF"/>
<path d="M179.169 142.908C178.994 142.874 178.834 142.797 178.701 142.683C178.569 142.57 178.468 142.422 178.406 142.253L176.78 137.795C176.674 137.505 176.69 137.171 176.824 136.864C176.959 136.557 177.2 136.304 177.495 136.159C177.79 136.015 178.115 135.991 178.398 136.093C178.682 136.196 178.9 136.416 179.006 136.705L180.07 139.622L186.882 133.107C187.002 132.989 187.141 132.894 187.291 132.828C187.441 132.761 187.598 132.725 187.755 132.721C187.911 132.717 188.063 132.745 188.201 132.804C188.339 132.862 188.461 132.95 188.56 133.063C188.659 133.175 188.733 133.31 188.777 133.458C188.822 133.607 188.835 133.767 188.818 133.929C188.801 134.091 188.752 134.251 188.676 134.401C188.6 134.551 188.497 134.687 188.374 134.802L180.264 142.555C180.118 142.695 179.945 142.801 179.76 142.863C179.575 142.926 179.384 142.943 179.202 142.914L179.169 142.908Z" fill="white"/>
</svg>
