<svg width="144" height="382" viewBox="0 0 144 382" fill="none" xmlns="http://www.w3.org/2000/svg">
<path d="M118.22 372.842L106.788 372.841L101.352 328.745L118.224 328.746L118.22 372.842Z" fill="#FFB8B8"/>
<path d="M98.6219 369.574H120.67V383.456H84.74C84.74 381.633 85.0991 379.828 85.7967 378.143C86.4943 376.459 87.5169 374.929 88.8059 373.64C90.095 372.351 91.6253 371.328 93.3095 370.63C94.9937 369.933 96.7989 369.574 98.6219 369.574Z" fill="#2F2E41"/>
<path d="M72.72 372.842L61.2881 372.841L55.8521 328.745L72.7241 328.746L72.72 372.842Z" fill="#FFB8B8"/>
<path d="M53.1219 369.574H75.1697V383.456H39.24C39.24 381.633 39.5991 379.828 40.2967 378.143C40.9943 376.459 42.0169 374.929 43.3059 373.64C44.595 372.351 46.1253 371.328 47.8095 370.63C49.4937 369.933 51.2989 369.574 53.1219 369.574Z" fill="#2F2E41"/>
<path d="M127.027 220.391C126.107 219.375 125.421 218.169 125.017 216.859C124.613 215.549 124.502 214.167 124.69 212.809C124.878 211.451 125.362 210.151 126.107 209C126.853 207.85 127.841 206.876 129.003 206.149L125.462 185.016L137.78 179.732L142.361 209.646C143.454 211.679 143.762 214.043 143.229 216.288C142.695 218.534 141.357 220.505 139.467 221.83C137.576 223.154 135.266 223.739 132.973 223.474C130.681 223.209 128.565 222.112 127.027 220.391Z" fill="#FFB8B8"/>
<path d="M30.589 210.405C31.6643 209.555 32.5401 208.479 33.1548 207.254C33.7694 206.029 34.1079 204.684 34.1464 203.313C34.1849 201.943 33.9225 200.581 33.3776 199.323C32.8328 198.065 32.0187 196.942 30.9929 196.033L37.9764 175.774L26.7007 168.528L17.2404 197.275C15.8271 199.1 15.1323 201.379 15.2875 203.682C15.4427 205.985 16.4372 208.151 18.0826 209.769C19.728 211.388 21.9099 212.346 24.2149 212.464C26.5199 212.581 28.7878 211.848 30.589 210.405Z" fill="#FFB8B8"/>
<path d="M89.1392 61.1661C102.704 61.1661 113.7 50.1697 113.7 36.605C113.7 23.0404 102.704 12.044 89.1392 12.044C75.5745 12.044 64.5781 23.0404 64.5781 36.605C64.5781 50.1697 75.5745 61.1661 89.1392 61.1661Z" fill="#FFB8B8"/>
<path d="M29.8296 195.249C29.4083 195.249 28.9891 195.19 28.5843 195.073L21.4256 193.018C20.2824 192.688 19.3162 191.919 18.7378 190.879C18.1593 189.839 18.0156 188.612 18.3379 187.467L33.1116 135.305L53.7137 84.7294C55.7622 79.7016 60.0423 76.4042 64.8836 76.1244C67.0947 76.0164 69.2896 76.5518 71.2026 77.6659C73.1156 78.78 74.6645 80.4248 75.6617 82.4013C76.7698 84.5166 77.3781 86.8579 77.44 89.2451C77.5019 91.6323 77.0156 94.0019 76.0186 96.1718L52.6016 147.382L33.9854 192.466C33.6461 193.289 33.07 193.993 32.3302 194.489C31.5904 194.984 30.7201 195.249 29.8296 195.249Z" fill="#3F3D56"/>
<path d="M102.999 57.2023L89.3529 57.4449C87.9314 57.4729 86.5233 57.1665 85.242 56.5504C83.9607 55.9343 82.8421 55.0257 81.9765 53.8979C81.1108 52.7701 80.5223 51.4546 80.2583 50.0576C79.9944 48.6606 80.0625 47.2211 80.457 45.8552C80.7486 44.8683 80.9677 43.8614 81.1125 42.8425C81.2659 41.7314 81.2959 40.6067 81.2022 39.489C81.1157 38.3697 80.6515 37.313 79.8857 36.4922C79.1198 35.6715 78.0978 35.1353 76.9872 34.9716C75.8765 34.8078 74.7433 35.0264 73.7732 35.5912C72.803 36.1561 72.0536 37.0339 71.6479 38.0806C69.3533 38.1133 64.4649 37.3652 62.1703 37.3979C57.2982 24.9081 67.9152 8.56472 79.3441 2.42612C90.9954 -3.83188 106.119 2.53481 110.585 15.5778C116.784 15.6892 121.82 21.8024 122.619 28.6841C123.418 35.5657 120.586 42.7515 116.256 48.0259C111.925 53.3002 106.238 57.1447 102.999 57.2023Z" fill="#2F2E41"/>
<path d="M58.1414 368.725C57.0357 368.718 55.9707 368.307 55.1484 367.568C54.326 366.829 53.8035 365.814 53.6799 364.715L48.6165 194.479L112.404 199.02L112.453 199.43C126.868 320.093 121.94 361.862 121.889 362.269C121.853 362.887 121.691 363.49 121.412 364.042C121.133 364.594 120.743 365.082 120.267 365.477C119.79 365.871 119.238 366.163 118.644 366.334C118.049 366.506 117.426 366.552 116.813 366.472L102.717 366.81C101.648 366.689 100.658 366.189 99.926 365.401C99.1942 364.613 98.769 363.589 98.7275 362.514L85.5562 239.214C85.4748 238.894 85.2832 238.613 85.0151 238.42C84.7471 238.227 84.4196 238.134 84.0901 238.158C83.7509 238.157 83.4219 238.274 83.1594 238.489C82.8968 238.703 82.7171 239.003 82.6509 239.335L77.5623 363.039C77.6164 364.187 77.227 365.312 76.4749 366.182C75.7227 367.051 74.6651 367.598 73.521 367.709L58.5886 368.702C58.44 368.717 58.2907 368.725 58.1414 368.725Z" fill="#2F2E41"/>
<path d="M84.6099 214.82C84.2283 214.82 83.8475 214.814 83.4649 214.803C65.1231 214.25 50.7733 200.373 46.8123 196.133C46.3078 195.593 45.9451 194.936 45.7564 194.221C45.5677 193.506 45.559 192.755 45.731 192.036L56.3123 147.272L53.505 108.355C53.0641 102.954 53.7724 97.5204 55.5832 92.4128C57.394 87.3051 60.2661 82.639 64.0106 78.7216C67.1308 75.4254 70.9232 72.8385 75.1307 71.1363C79.3383 69.4341 83.8626 68.6564 88.397 68.8559C106.252 69.7079 120.338 85.6674 120.466 105.188C120.663 135.423 119.773 137.5 119.481 138.183C110.57 158.98 115.437 188.172 117.14 196.624C117.293 197.378 117.25 198.159 117.016 198.892C116.782 199.625 116.364 200.286 115.803 200.812C106.003 210.111 95.5133 214.82 84.6099 214.82Z" fill="#3F3D56"/>
<path d="M130.675 203.441C129.657 203.441 128.669 203.095 127.874 202.46C127.078 201.825 126.521 200.939 126.294 199.947L115.377 152.39L100.747 98.0326C100.122 95.7278 100.034 93.3104 100.489 90.9662C100.945 88.622 101.932 86.4134 103.374 84.5102C104.685 82.7266 106.484 81.3608 108.554 80.5782C110.625 79.7955 112.878 79.6294 115.041 80.1C119.769 81.1762 123.446 85.1352 124.636 90.4325L136.59 143.662L142.553 197.602C142.681 198.785 142.337 199.971 141.594 200.901C140.852 201.831 139.772 202.43 138.59 202.567L131.19 203.412C131.019 203.431 130.847 203.441 130.675 203.441Z" fill="#3F3D56"/>
</svg>
